<svg width="600" height="352" viewBox="0 0 600 352" fill="none" xmlns="http://www.w3.org/2000/svg">
<g clip-path="url(#clip0_26_100)">
<path d="M425 3H591.797C595.775 3 599 6.22495 599 10.2031V177C599 273.098 521.098 351 425 351C328.902 351 251 273.098 251 177C251 80.9025 328.902 3 425 3Z" stroke="#DB9F5D" stroke-width="2"/>
<path d="M177.416 349.813L10.6209 350.591C6.64274 350.609 3.40278 347.4 3.38423 343.421L2.6063 176.626C2.15811 80.5298 79.6964 2.26487 175.793 1.81668C271.889 1.36849 350.154 78.9068 350.603 175.003C351.051 271.1 273.512 349.365 177.416 349.813Z" stroke="#DB9F5D" stroke-width="2"/>
<path d="M56.7216 176L56.7216 158.545L63.267 158.545C64.608 158.545 65.733 158.778 66.642 159.244C67.5568 159.71 68.2472 160.364 68.7131 161.205C69.1847 162.04 69.4205 163.014 69.4205 164.128C69.4205 165.247 69.1818 166.219 68.7045 167.043C68.233 167.861 67.5369 168.494 66.6165 168.943C65.696 169.386 64.5653 169.608 63.2244 169.608L58.5625 169.608L58.5625 166.983L62.7983 166.983C63.5824 166.983 64.2244 166.875 64.7244 166.659C65.2244 166.437 65.5938 166.116 65.8324 165.696C66.0767 165.27 66.1989 164.747 66.1989 164.128C66.1989 163.509 66.0767 162.98 65.8324 162.543C65.5881 162.099 65.2159 161.764 64.7159 161.537C64.2159 161.304 63.571 161.187 62.7813 161.187L59.8835 161.187L59.8835 176L56.7216 176ZM65.7386 168.091L70.0597 176L66.5313 176L62.2869 168.091L65.7386 168.091ZM87.7316 167.273C87.7316 169.153 87.3793 170.764 86.6747 172.105C85.9759 173.44 85.0213 174.463 83.8111 175.173C82.6066 175.884 81.2401 176.239 79.7117 176.239C78.1833 176.239 76.8139 175.884 75.6037 175.173C74.3992 174.457 73.4446 173.432 72.7401 172.097C72.0412 170.756 71.6918 169.148 71.6918 167.273C71.6918 165.392 72.0412 163.784 72.7401 162.449C73.4446 161.108 74.3992 160.082 75.6037 159.372C76.8139 158.662 78.1833 158.307 79.7117 158.307C81.2401 158.307 82.6066 158.662 83.8111 159.372C85.0213 160.082 85.9759 161.108 86.6747 162.449C87.3793 163.784 87.7316 165.392 87.7316 167.273ZM84.5526 167.273C84.5526 165.949 84.3452 164.832 83.9304 163.923C83.5213 163.009 82.9531 162.318 82.2259 161.852C81.4986 161.381 80.6605 161.145 79.7117 161.145C78.7628 161.145 77.9247 161.381 77.1975 161.852C76.4702 162.318 75.8992 163.009 75.4844 163.923C75.0753 164.832 74.8708 165.949 74.8708 167.273C74.8708 168.597 75.0753 169.716 75.4844 170.631C75.8992 171.54 76.4702 172.23 77.1975 172.702C77.9247 173.168 78.7628 173.401 79.7117 173.401C80.6605 173.401 81.4986 173.168 82.2259 172.702C82.9531 172.23 83.5213 171.54 83.9304 170.631C84.3452 169.716 84.5526 168.597 84.5526 167.273ZM90.5249 158.545L94.3942 158.545L99.576 171.193L99.7806 171.193L104.962 158.545L108.832 158.545L108.832 176L105.798 176L105.798 164.009L105.636 164.009L100.812 175.949L98.5448 175.949L93.7209 163.983L93.559 163.983L93.559 176L90.5249 176L90.5249 158.545ZM112.079 176L112.079 158.545L118.624 158.545C119.965 158.545 121.09 158.795 121.999 159.295C122.914 159.795 123.604 160.483 124.07 161.358C124.542 162.227 124.778 163.216 124.778 164.324C124.778 165.443 124.542 166.437 124.07 167.307C123.599 168.176 122.903 168.861 121.982 169.361C121.062 169.855 119.928 170.102 118.582 170.102L114.244 170.102L114.244 167.503L118.156 167.503C118.94 167.503 119.582 167.366 120.082 167.094C120.582 166.821 120.951 166.446 121.19 165.969C121.434 165.491 121.556 164.943 121.556 164.324C121.556 163.705 121.434 163.159 121.19 162.687C120.951 162.216 120.579 161.849 120.073 161.588C119.573 161.321 118.928 161.187 118.139 161.187L115.241 161.187L115.241 176L112.079 176ZM127.328 176L127.328 158.545L138.68 158.545L138.68 161.196L130.49 161.196L130.49 165.935L138.092 165.935L138.092 168.585L130.49 168.585L130.49 173.349L138.749 173.349L138.749 176L127.328 176ZM156.054 158.545L156.054 176L153.242 176L145.017 164.111L144.872 164.111L144.872 176L141.71 176L141.71 158.545L144.54 158.545L152.756 170.443L152.909 170.443L152.909 158.545L156.054 158.545ZM165.218 176L159.303 176L159.303 158.545L165.337 158.545C167.07 158.545 168.559 158.895 169.803 159.594C171.053 160.287 172.014 161.284 172.684 162.585C173.355 163.886 173.69 165.443 173.69 167.256C173.69 169.074 173.352 170.636 172.676 171.943C172.005 173.25 171.036 174.253 169.769 174.952C168.508 175.651 166.991 176 165.218 176ZM162.465 173.264L165.065 173.264C166.281 173.264 167.295 173.043 168.107 172.599C168.92 172.151 169.531 171.483 169.94 170.597C170.349 169.705 170.553 168.591 170.553 167.256C170.553 165.92 170.349 164.812 169.94 163.932C169.531 163.045 168.926 162.384 168.124 161.946C167.329 161.503 166.34 161.281 165.159 161.281L162.465 161.281L162.465 173.264ZM192.095 167.273C192.095 169.153 191.742 170.764 191.038 172.105C190.339 173.44 189.384 174.463 188.174 175.173C186.97 175.884 185.603 176.239 184.075 176.239C182.546 176.239 181.177 175.884 179.967 175.173C178.762 174.457 177.808 173.432 177.103 172.097C176.404 170.756 176.055 169.148 176.055 167.273C176.055 165.392 176.404 163.784 177.103 162.449C177.808 161.108 178.762 160.082 179.967 159.372C181.177 158.662 182.546 158.307 184.075 158.307C185.603 158.307 186.97 158.662 188.174 159.372C189.384 160.082 190.339 161.108 191.038 162.449C191.742 163.784 192.095 165.392 192.095 167.273ZM188.916 167.273C188.916 165.949 188.708 164.832 188.293 163.923C187.884 163.009 187.316 162.318 186.589 161.852C185.862 161.381 185.024 161.145 184.075 161.145C183.126 161.145 182.288 161.381 181.561 161.852C180.833 162.318 180.262 163.009 179.847 163.923C179.438 164.832 179.234 165.949 179.234 167.273C179.234 168.597 179.438 169.716 179.847 170.631C180.262 171.54 180.833 172.23 181.561 172.702C182.288 173.168 183.126 173.401 184.075 173.401C185.024 173.401 185.862 173.168 186.589 172.702C187.316 172.23 187.884 171.54 188.293 170.631C188.708 169.716 188.916 168.597 188.916 167.273ZM56.7216 205L56.7216 187.545L63.4034 187.545C64.6648 187.545 65.7131 187.744 66.5483 188.142C67.3892 188.534 68.017 189.071 68.4318 189.753C68.8523 190.435 69.0625 191.207 69.0625 192.071C69.0625 192.781 68.9261 193.389 68.6534 193.895C68.3807 194.395 68.0142 194.801 67.554 195.114C67.0938 195.426 66.5795 195.651 66.0114 195.787L66.0114 195.957C66.6307 195.991 67.2244 196.182 67.7926 196.528C68.3665 196.869 68.8352 197.352 69.1989 197.977C69.5625 198.602 69.7443 199.358 69.7443 200.244C69.7443 201.148 69.5256 201.96 69.0881 202.682C68.6506 203.398 67.9915 203.963 67.1108 204.378C66.2301 204.793 65.1222 205 63.7869 205L56.7216 205ZM59.8835 202.358L63.2841 202.358C64.4318 202.358 65.2585 202.139 65.7642 201.702C66.2756 201.259 66.5313 200.69 66.5313 199.997C66.5313 199.48 66.4034 199.014 66.1477 198.599C65.892 198.179 65.5284 197.849 65.0568 197.611C64.5852 197.366 64.0227 197.244 63.3693 197.244L59.8835 197.244L59.8835 202.358ZM59.8835 194.969L63.0114 194.969C63.5568 194.969 64.0483 194.869 64.4858 194.67C64.9233 194.466 65.267 194.179 65.517 193.81C65.7727 193.435 65.9006 192.991 65.9006 192.48C65.9006 191.804 65.6619 191.247 65.1847 190.81C64.7131 190.372 64.0114 190.153 63.0795 190.153L59.8835 190.153L59.8835 194.969ZM74.5405 205L71.1655 205L77.3104 187.545L81.2138 187.545L87.3672 205L83.9922 205L79.3303 191.125L79.1939 191.125L74.5405 205ZM74.6513 198.156L83.8558 198.156L83.8558 200.696L74.6513 200.696L74.6513 198.156ZM89.4702 205L89.4702 187.545L96.0157 187.545C97.3566 187.545 98.4816 187.778 99.3907 188.244C100.305 188.71 100.996 189.364 101.462 190.205C101.933 191.04 102.169 192.014 102.169 193.128C102.169 194.247 101.93 195.219 101.453 196.043C100.982 196.861 100.286 197.494 99.3651 197.943C98.4446 198.386 97.314 198.608 95.9731 198.608L91.3111 198.608L91.3111 195.983L95.5469 195.983C96.331 195.983 96.9731 195.875 97.4731 195.659C97.9731 195.437 98.3424 195.116 98.581 194.696C98.8253 194.27 98.9475 193.747 98.9475 193.128C98.9475 192.509 98.8253 191.98 98.581 191.543C98.3367 191.099 97.9645 190.764 97.4645 190.537C96.9645 190.304 96.3196 190.187 95.5299 190.187L92.6321 190.187L92.6321 205L89.4702 205ZM98.4873 197.091L102.808 205L99.2799 205L95.0356 197.091L98.4873 197.091ZM104.884 205L104.884 187.545L111.429 187.545C112.77 187.545 113.895 187.778 114.804 188.244C115.719 188.71 116.409 189.364 116.875 190.205C117.347 191.04 117.582 192.014 117.582 193.128C117.582 194.247 117.344 195.219 116.867 196.043C116.395 196.861 115.699 197.494 114.778 197.943C113.858 198.386 112.727 198.608 111.386 198.608L106.724 198.608L106.724 195.983L110.96 195.983C111.744 195.983 112.386 195.875 112.886 195.659C113.386 195.437 113.756 195.116 113.994 194.696C114.239 194.27 114.361 193.747 114.361 193.128C114.361 192.509 114.239 191.98 113.994 191.543C113.75 191.099 113.378 190.764 112.878 190.537C112.378 190.304 111.733 190.187 110.943 190.187L108.046 190.187L108.046 205L104.884 205ZM113.901 197.091L118.222 205L114.693 205L110.449 197.091L113.901 197.091ZM120.297 205L120.297 187.545L131.649 187.545L131.649 190.196L123.459 190.196L123.459 194.935L131.061 194.935L131.061 197.585L123.459 197.585L123.459 202.349L131.717 202.349L131.717 205L120.297 205ZM137.841 187.545L137.841 205L134.679 205L134.679 187.545L137.841 187.545ZM141.069 205L141.069 187.545L147.614 187.545C148.955 187.545 150.08 187.778 150.989 188.244C151.904 188.71 152.595 189.364 153.061 190.205C153.532 191.04 153.768 192.014 153.768 193.128C153.768 194.247 153.529 195.219 153.052 196.043C152.58 196.861 151.884 197.494 150.964 197.943C150.043 198.386 148.913 198.608 147.572 198.608L142.91 198.608L142.91 195.983L147.146 195.983C147.93 195.983 148.572 195.875 149.072 195.659C149.572 195.437 149.941 195.116 150.18 194.696C150.424 194.27 150.546 193.747 150.546 193.128C150.546 192.509 150.424 191.98 150.18 191.543C149.936 191.099 149.563 190.764 149.063 190.537C148.563 190.304 147.918 190.187 147.129 190.187L144.231 190.187L144.231 205L141.069 205ZM150.086 197.091L154.407 205L150.879 205L146.634 197.091L150.086 197.091ZM158.724 205L155.349 205L161.494 187.545L165.397 187.545L171.551 205L168.176 205L163.514 191.125L163.377 191.125L158.724 205ZM158.835 198.156L168.039 198.156L168.039 200.696L158.835 200.696L158.835 198.156ZM182.858 192.344C182.779 191.599 182.443 191.02 181.852 190.605C181.267 190.19 180.506 189.983 179.568 189.983C178.909 189.983 178.344 190.082 177.872 190.281C177.401 190.48 177.04 190.75 176.79 191.091C176.54 191.432 176.412 191.821 176.406 192.259C176.406 192.622 176.489 192.937 176.654 193.205C176.824 193.472 177.054 193.699 177.344 193.886C177.634 194.068 177.955 194.222 178.307 194.347C178.659 194.472 179.014 194.577 179.372 194.662L181.009 195.071C181.668 195.224 182.301 195.432 182.909 195.693C183.523 195.955 184.071 196.284 184.554 196.682C185.043 197.08 185.429 197.56 185.713 198.122C185.997 198.685 186.139 199.344 186.139 200.099C186.139 201.122 185.878 202.023 185.355 202.801C184.833 203.574 184.077 204.179 183.088 204.616C182.105 205.048 180.915 205.264 179.517 205.264C178.159 205.264 176.98 205.054 175.98 204.634C174.986 204.213 174.208 203.599 173.645 202.793C173.088 201.986 172.787 201.003 172.742 199.844L175.852 199.844C175.898 200.452 176.085 200.957 176.415 201.361C176.744 201.764 177.173 202.065 177.702 202.264C178.236 202.463 178.833 202.562 179.492 202.562C180.179 202.562 180.781 202.46 181.298 202.256C181.821 202.045 182.23 201.756 182.526 201.386C182.821 201.011 182.972 200.574 182.977 200.074C182.972 199.619 182.838 199.244 182.577 198.949C182.316 198.648 181.949 198.398 181.477 198.199C181.012 197.994 180.466 197.812 179.841 197.653L177.855 197.142C176.418 196.773 175.281 196.213 174.446 195.463C173.617 194.707 173.202 193.705 173.202 192.455C173.202 191.426 173.48 190.526 174.037 189.753C174.6 188.98 175.364 188.381 176.33 187.955C177.296 187.523 178.389 187.307 179.611 187.307C180.85 187.307 181.935 187.523 182.867 187.955C183.804 188.381 184.54 188.974 185.074 189.736C185.608 190.491 185.884 191.361 185.901 192.344L182.858 192.344ZM58.9631 234L55.5881 234L61.733 216.545L65.6364 216.545L71.7898 234L68.4148 234L63.7528 220.125L63.6165 220.125L58.9631 234ZM59.0739 227.156L68.2784 227.156L68.2784 229.696L59.0739 229.696L59.0739 227.156ZM73.8928 234L73.8928 216.545L77.0547 216.545L77.0547 231.349L84.7422 231.349L84.7422 234L73.8928 234ZM87.2905 234L87.2905 216.545L98.6428 216.545L98.6428 219.196L90.4525 219.196L90.4525 223.935L98.0547 223.935L98.0547 226.585L90.4525 226.585L90.4525 231.349L98.711 231.349L98.711 234L87.2905 234ZM91.7905 214.824L93.6996 210.929L96.7167 210.929L94.1002 214.824L91.7905 214.824ZM101.673 216.545L105.542 216.545L110.724 229.193L110.928 229.193L116.11 216.545L119.979 216.545L119.979 234L116.945 234L116.945 222.009L116.783 222.009L111.96 233.949L109.693 233.949L104.869 221.983L104.707 221.983L104.707 234L101.673 234L101.673 216.545ZM134.899 234L128.984 234L128.984 216.545L135.018 216.545C136.751 216.545 138.239 216.895 139.484 217.594C140.734 218.287 141.694 219.284 142.364 220.585C143.035 221.886 143.37 223.443 143.37 225.256C143.37 227.074 143.032 228.636 142.356 229.943C141.685 231.25 140.717 232.253 139.45 232.952C138.188 233.651 136.671 234 134.899 234ZM132.146 231.264L134.745 231.264C135.961 231.264 136.975 231.043 137.788 230.599C138.6 230.151 139.211 229.483 139.62 228.597C140.029 227.705 140.234 226.591 140.234 225.256C140.234 223.92 140.029 222.812 139.62 221.932C139.211 221.045 138.606 220.384 137.805 219.946C137.009 219.503 136.021 219.281 134.839 219.281L132.146 219.281L132.146 231.264ZM147.482 234L144.107 234L150.252 216.545L154.156 216.545L160.309 234L156.934 234L152.272 220.125L152.136 220.125L147.482 234ZM147.593 227.156L156.798 227.156L156.798 229.696L147.593 229.696L147.593 227.156ZM56.7216 263L56.7216 245.545L63.4034 245.545C64.6648 245.545 65.7131 245.744 66.5483 246.142C67.3892 246.534 68.017 247.071 68.4318 247.753C68.8523 248.435 69.0625 249.207 69.0625 250.071C69.0625 250.781 68.9261 251.389 68.6534 251.895C68.3807 252.395 68.0142 252.801 67.554 253.114C67.0938 253.426 66.5795 253.651 66.0114 253.787L66.0114 253.957C66.6307 253.991 67.2244 254.182 67.7926 254.528C68.3665 254.869 68.8352 255.352 69.1989 255.977C69.5625 256.602 69.7443 257.358 69.7443 258.244C69.7443 259.148 69.5256 259.96 69.0881 260.682C68.6506 261.398 67.9915 261.963 67.1108 262.378C66.2301 262.793 65.1222 263 63.7869 263L56.7216 263ZM59.8835 260.358L63.2841 260.358C64.4318 260.358 65.2585 260.139 65.7642 259.702C66.2756 259.259 66.5313 258.69 66.5313 257.997C66.5313 257.48 66.4034 257.014 66.1477 256.599C65.892 256.179 65.5284 255.849 65.0568 255.611C64.5852 255.366 64.0227 255.244 63.3693 255.244L59.8835 255.244L59.8835 260.358ZM59.8835 252.969L63.0114 252.969C63.5568 252.969 64.0483 252.869 64.4858 252.67C64.9233 252.466 65.267 252.179 65.517 251.81C65.7727 251.435 65.9006 250.991 65.9006 250.48C65.9006 249.804 65.6619 249.247 65.1847 248.81C64.7131 248.372 64.0114 248.153 63.0795 248.153L59.8835 248.153L59.8835 252.969ZM83.3019 245.545L86.4638 245.545L86.4638 256.949C86.4638 258.199 86.1683 259.298 85.5774 260.247C84.9922 261.196 84.1683 261.937 83.1058 262.472C82.0433 263 80.8019 263.264 79.3814 263.264C77.9553 263.264 76.711 263 75.6485 262.472C74.586 261.937 73.7621 261.196 73.1769 260.247C72.5916 259.298 72.299 258.199 72.299 256.949L72.299 245.545L75.461 245.545L75.461 256.685C75.461 257.412 75.6201 258.06 75.9382 258.628C76.2621 259.196 76.7166 259.642 77.3019 259.966C77.8871 260.284 78.5803 260.443 79.3814 260.443C80.1826 260.443 80.8757 260.284 81.461 259.966C82.0519 259.642 82.5064 259.196 82.8246 258.628C83.1428 258.06 83.3019 257.412 83.3019 256.685L83.3019 245.545ZM89.7046 263L89.7046 245.545L96.25 245.545C97.591 245.545 98.716 245.778 99.625 246.244C100.54 246.71 101.23 247.364 101.696 248.205C102.168 249.04 102.403 250.014 102.403 251.128C102.403 252.247 102.165 253.219 101.688 254.043C101.216 254.861 100.52 255.494 99.5995 255.943C98.679 256.386 97.5483 256.608 96.2074 256.608L91.5455 256.608L91.5455 253.983L95.7813 253.983C96.5654 253.983 97.2074 253.875 97.7074 253.659C98.2074 253.437 98.5768 253.116 98.8154 252.696C99.0597 252.27 99.1819 251.747 99.1819 251.128C99.1819 250.509 99.0597 249.98 98.8154 249.543C98.5711 249.099 98.1989 248.764 97.6989 248.537C97.1989 248.304 96.554 248.187 95.7643 248.187L92.8665 248.187L92.8665 263L89.7046 263ZM98.7216 255.091L103.043 263L99.5143 263L95.2699 255.091L98.7216 255.091ZM120.715 254.273C120.715 256.153 120.362 257.764 119.658 259.105C118.959 260.44 118.004 261.463 116.794 262.173C115.59 262.884 114.223 263.239 112.695 263.239C111.166 263.239 109.797 262.884 108.587 262.173C107.382 261.457 106.428 260.432 105.723 259.097C105.024 257.756 104.675 256.148 104.675 254.273C104.675 252.392 105.024 250.784 105.723 249.449C106.428 248.108 107.382 247.082 108.587 246.372C109.797 245.662 111.166 245.307 112.695 245.307C114.223 245.307 115.59 245.662 116.794 246.372C118.004 247.082 118.959 248.108 119.658 249.449C120.362 250.784 120.715 252.392 120.715 254.273ZM117.536 254.273C117.536 252.949 117.328 251.832 116.913 250.923C116.504 250.009 115.936 249.318 115.209 248.852C114.482 248.381 113.644 248.145 112.695 248.145C111.746 248.145 110.908 248.381 110.18 248.852C109.453 249.318 108.882 250.009 108.467 250.923C108.058 251.832 107.854 252.949 107.854 254.273C107.854 255.597 108.058 256.716 108.467 257.631C108.882 258.54 109.453 259.23 110.18 259.702C110.908 260.168 111.746 260.401 112.695 260.401C113.644 260.401 114.482 260.168 115.209 259.702C115.936 259.23 116.504 258.54 116.913 257.631C117.328 256.716 117.536 255.597 117.536 254.273ZM138.448 251.435L135.261 251.435C135.17 250.912 135.002 250.449 134.758 250.045C134.514 249.636 134.21 249.29 133.846 249.006C133.482 248.722 133.068 248.509 132.602 248.366C132.141 248.219 131.644 248.145 131.11 248.145C130.161 248.145 129.32 248.384 128.587 248.861C127.854 249.332 127.281 250.026 126.866 250.94C126.451 251.849 126.244 252.96 126.244 254.273C126.244 255.608 126.451 256.733 126.866 257.648C127.286 258.557 127.86 259.244 128.587 259.71C129.32 260.17 130.158 260.401 131.102 260.401C131.624 260.401 132.113 260.332 132.568 260.196C133.028 260.054 133.44 259.847 133.803 259.574C134.173 259.301 134.482 258.966 134.732 258.568C134.988 258.17 135.164 257.716 135.261 257.205L138.448 257.222C138.329 258.051 138.07 258.83 137.673 259.557C137.281 260.284 136.766 260.926 136.13 261.483C135.494 262.034 134.749 262.466 133.897 262.778C133.045 263.085 132.099 263.239 131.059 263.239C129.525 263.239 128.156 262.884 126.951 262.173C125.747 261.463 124.798 260.437 124.104 259.097C123.411 257.756 123.065 256.148 123.065 254.273C123.065 252.392 123.414 250.784 124.113 249.449C124.812 248.108 125.764 247.082 126.968 246.372C128.173 245.662 129.536 245.307 131.059 245.307C132.031 245.307 132.934 245.443 133.769 245.716C134.604 245.989 135.349 246.389 136.002 246.918C136.656 247.44 137.193 248.082 137.613 248.844C138.039 249.599 138.318 250.463 138.448 251.435ZM141.148 263L141.148 245.545L147.693 245.545C149.034 245.545 150.159 245.778 151.068 246.244C151.983 246.71 152.673 247.364 153.139 248.205C153.611 249.04 153.847 250.014 153.847 251.128C153.847 252.247 153.608 253.219 153.131 254.043C152.659 254.861 151.963 255.494 151.043 255.943C150.122 256.386 148.992 256.608 147.651 256.608L142.989 256.608L142.989 253.983L147.225 253.983C148.009 253.983 148.651 253.875 149.151 253.659C149.651 253.437 150.02 253.116 150.259 252.696C150.503 252.27 150.625 251.747 150.625 251.128C150.625 250.509 150.503 249.98 150.259 249.543C150.014 249.099 149.642 248.764 149.142 248.537C148.642 248.304 147.997 248.187 147.207 248.187L144.31 248.187L144.31 263L141.148 263ZM150.165 255.091L154.486 263L150.957 263L146.713 255.091L150.165 255.091ZM158.803 263L155.428 263L161.573 245.545L165.476 245.545L171.629 263L168.254 263L163.592 249.125L163.456 249.125L158.803 263ZM158.913 256.156L168.118 256.156L168.118 258.696L158.913 258.696L158.913 256.156ZM162.34 243.824L164.249 239.929L167.266 239.929L164.649 243.824L162.34 243.824ZM170.856 248.196L170.856 245.545L184.782 245.545L184.782 248.196L179.387 248.196L179.387 263L176.251 263L176.251 248.196L170.856 248.196ZM190.433 245.545L190.433 263L187.271 263L187.271 245.545L190.433 245.545ZM208.601 251.435L205.414 251.435C205.323 250.912 205.155 250.449 204.911 250.045C204.666 249.636 204.362 249.29 203.999 249.006C203.635 248.722 203.22 248.509 202.754 248.366C202.294 248.219 201.797 248.145 201.263 248.145C200.314 248.145 199.473 248.384 198.74 248.861C198.007 249.332 197.433 250.026 197.019 250.94C196.604 251.849 196.397 252.96 196.397 254.273C196.397 255.608 196.604 256.733 197.019 257.648C197.439 258.557 198.013 259.244 198.74 259.71C199.473 260.17 200.311 260.401 201.254 260.401C201.777 260.401 202.266 260.332 202.72 260.196C203.181 260.054 203.593 259.847 203.956 259.574C204.325 259.301 204.635 258.966 204.885 258.568C205.141 258.17 205.317 257.716 205.414 257.205L208.601 257.222C208.482 258.051 208.223 258.83 207.825 259.557C207.433 260.284 206.919 260.926 206.283 261.483C205.647 262.034 204.902 262.466 204.05 262.778C203.198 263.085 202.252 263.239 201.212 263.239C199.678 263.239 198.308 262.884 197.104 262.173C195.899 261.463 194.95 260.437 194.257 259.097C193.564 257.756 193.218 256.148 193.218 254.273C193.218 252.392 193.567 250.784 194.266 249.449C194.965 248.108 195.916 247.082 197.121 246.372C198.325 245.662 199.689 245.307 201.212 245.307C202.183 245.307 203.087 245.443 203.922 245.716C204.757 245.989 205.502 246.389 206.155 246.918C206.808 247.44 207.345 248.082 207.766 248.844C208.192 249.599 208.47 250.463 208.601 251.435ZM213.331 263L209.956 263L216.101 245.545L220.004 245.545L226.158 263L222.783 263L218.121 249.125L217.985 249.125L213.331 263ZM213.442 256.156L222.647 256.156L222.647 258.696L213.442 258.696L213.442 256.156ZM237.465 250.344C237.386 249.599 237.051 249.02 236.46 248.605C235.875 248.19 235.113 247.983 234.176 247.983C233.517 247.983 232.951 248.082 232.48 248.281C232.008 248.48 231.647 248.75 231.397 249.091C231.147 249.432 231.019 249.821 231.014 250.259C231.014 250.622 231.096 250.937 231.261 251.205C231.431 251.472 231.661 251.699 231.951 251.886C232.241 252.068 232.562 252.222 232.914 252.347C233.267 252.472 233.622 252.577 233.98 252.662L235.616 253.071C236.275 253.224 236.909 253.432 237.517 253.693C238.13 253.955 238.679 254.284 239.161 254.682C239.65 255.08 240.036 255.56 240.321 256.122C240.605 256.685 240.747 257.344 240.747 258.099C240.747 259.122 240.485 260.023 239.963 260.801C239.44 261.574 238.684 262.179 237.696 262.616C236.713 263.048 235.522 263.264 234.125 263.264C232.767 263.264 231.588 263.054 230.588 262.634C229.593 262.213 228.815 261.599 228.252 260.793C227.696 259.986 227.394 259.003 227.349 257.844L230.46 257.844C230.505 258.452 230.693 258.957 231.022 259.361C231.352 259.764 231.781 260.065 232.309 260.264C232.843 260.463 233.44 260.562 234.099 260.562C234.786 260.562 235.389 260.46 235.906 260.256C236.429 260.045 236.838 259.756 237.133 259.386C237.429 259.011 237.579 258.574 237.585 258.074C237.579 257.619 237.446 257.244 237.184 256.949C236.923 256.648 236.556 256.398 236.085 256.199C235.619 255.994 235.073 255.812 234.448 255.653L232.463 255.142C231.025 254.773 229.889 254.213 229.054 253.463C228.224 252.707 227.809 251.705 227.809 250.455C227.809 249.426 228.088 248.526 228.644 247.753C229.207 246.98 229.971 246.381 230.937 245.955C231.903 245.523 232.997 245.307 234.218 245.307C235.457 245.307 236.542 245.523 237.474 245.955C238.411 246.381 239.147 246.974 239.681 247.736C240.215 248.491 240.491 249.361 240.508 250.344L237.465 250.344Z" fill="#EFEFEF"/>
</g>
<defs>
<clipPath id="clip0_26_100">
<rect width="600" height="352" fill="white"/>
</clipPath>
</defs>
</svg>
